#Comment line ignore any data following # character 
#Hierarchical Translation and Rotation (.htr) file 
[Header]	
#Header keywords are followed by a single value 
FileType HTR		#Single word string
DataType HTRS		#Translation followed by rotation and scale data
FileVersion 1		#integer
NumSegments 84		#integer
NumFrames 2		#integer
DataFrameRate 30		#integer, data frame rate in this file
EulerRotationOrder ZYX
CalibrationUnits mm
RotationUnits Degrees
GlobalAxisofGravity Y
BoneLengthAxis Y
ScaleFactor 1.00
[SegmentNames&Hierarchy]
#CHILD	PARENT
MASTER GLOBAL
root MASTER
chest root
L_mid_tent01 root
R_mid_tent01 root
spine01 root
Bip01_Neck chest
L_humerus chest
R_humerus chest
weapon_bone chest
Bip01_Head Bip01_Neck
eye_left_bone Bip01_Head
eye_right_bone Bip01_Head
L_forearm L_humerus
L_front_hand L_forearm
L_weapon_bone L_forearm
L_front_hand01_01 L_front_hand
L_front_hand02_01 L_front_hand
L_front_hand03_01 L_front_hand
L_front_hand01_02 L_front_hand01_01
L_front_hand02_02 L_front_hand02_01
L_front_hand03_02 L_front_hand03_01
R_forearm R_humerus
R_front_hand R_forearm
R_weapon_bone R_forearm
R_front_hand01_01 R_front_hand
R_front_hand02_01 R_front_hand
R_front_hand03_01 R_front_hand
R_front_hand01_02 R_front_hand01_01
R_front_hand02_02 R_front_hand02_01
R_front_hand03_02 R_front_hand03_01
null_rope01_connect L_mid_tent01
Rope1_Seg01 null_rope01_connect
Rope1_Seg02 Rope1_Seg01
Rope1_Seg03 Rope1_Seg02
Rope1_Seg04 Rope1_Seg03
Rope1_Seg05 Rope1_Seg04
Rope1_Seg06 Rope1_Seg05
Rope1_Seg07 Rope1_Seg06
Rope1_Seg09 Rope1_Seg07
L_mid_hand01 Rope1_Seg09
L_mid_hand02 Rope1_Seg09
L_mid_hand03 Rope1_Seg09
null_rope02_connect R_mid_tent01
Rope2_Seg01 null_rope02_connect
Rope2_Seg02 Rope2_Seg01
Rope2_Seg03 Rope2_Seg02
Rope2_Seg04 Rope2_Seg03
Rope2_Seg05 Rope2_Seg04
Rope2_Seg06 Rope2_Seg05
Rope2_Seg07 Rope2_Seg06
Rope2_Seg09 Rope2_Seg07
R_mid_hand01 Rope2_Seg09
R_mid_hand02 Rope2_Seg09
R_mid_hand03 Rope2_Seg09
spine02 spine01
spine03 spine02
pelvis spine03
null_rope03_connect pelvis
null_rope04_connect pelvis
Rope3_Seg01 null_rope03_connect
Rope3_Seg02 Rope3_Seg01
Rope3_Seg03 Rope3_Seg02
Rope3_Seg04 Rope3_Seg03
Rope3_Seg05 Rope3_Seg04
Rope3_Seg06 Rope3_Seg05
Rope3_Seg07 Rope3_Seg06
Rope3_Seg08 Rope3_Seg07
Rope3_Seg09 Rope3_Seg08
R_rear_hand01 Rope3_Seg09
R_rear_hand02 Rope3_Seg09
R_rear_hand03 Rope3_Seg09
Rope4_Seg01 null_rope04_connect
Rope4_Seg02 Rope4_Seg01
Rope4_Seg03 Rope4_Seg02
Rope4_Seg04 Rope4_Seg03
Rope4_Seg05 Rope4_Seg04
Rope4_Seg06 Rope4_Seg05
Rope4_Seg07 Rope4_Seg06
Rope4_Seg08 Rope4_Seg07
Rope4_Seg09 Rope4_Seg08
L_rear_hand01 Rope4_Seg09
L_rear_hand02 Rope4_Seg09
L_rear_hand03 Rope4_Seg09
[BasePosition]
#SegmentName Tx, Ty, Tz, Rx, Ry, Rz, BoneLength
MASTER 0.000000 0.000000 0.000000 -90.000000 0.000000 0.000000 10.000000 
root 0.000000 0.000000 0.000000 0.000000 0.000000 0.000000 10.000000 
chest 0.000000 0.000000 0.000000 0.000000 0.000000 0.000000 10.000000 
L_mid_tent01 0.000000 0.000000 0.000000 0.000000 0.000000 0.000000 10.000000 
R_mid_tent01 0.000000 0.000000 0.000000 0.000000 0.000000 0.000000 10.000000 
spine01 0.000000 0.000000 0.000000 0.000000 0.000000 0.000000 10.000000 
Bip01_Neck 0.000000 0.000000 0.000000 0.000000 0.000000 0.000000 10.000000 
L_humerus 0.000000 0.000000 0.000000 0.000000 0.000000 0.000000 10.000000 
R_humerus 0.000000 0.000000 0.000000 0.000000 0.000000 0.000000 10.000000 
weapon_bone 0.000000 0.000000 0.000000 0.000000 0.000000 0.000000 10.000000 
Bip01_Head 0.000000 0.000000 0.000000 0.000000 0.000000 0.000000 10.000000 
eye_left_bone 0.000000 0.000000 0.000000 0.000000 0.000000 0.000000 10.000000 
eye_right_bone 0.000000 0.000000 0.000000 0.000000 0.000000 0.000000 10.000000 
L_forearm 0.000000 0.000000 0.000000 0.000000 0.000000 0.000000 10.000000 
L_front_hand 0.000000 0.000000 0.000000 0.000000 0.000000 0.000000 10.000000 
L_weapon_bone 0.000000 0.000000 0.000000 0.000000 0.000000 0.000000 10.000000 
L_front_hand01_01 0.000000 0.000000 0.000000 0.000000 0.000000 0.000000 10.000000 
L_front_hand02_01 0.000000 0.000000 0.000000 0.000000 0.000000 0.000000 10.000000 
L_front_hand03_01 0.000000 0.000000 0.000000 0.000000 0.000000 0.000000 10.000000 
L_front_hand01_02 0.000000 0.000000 0.000000 0.000000 0.000000 0.000000 10.000000 
L_front_hand02_02 0.000000 0.000000 0.000000 0.000000 0.000000 0.000000 10.000000 
L_front_hand03_02 0.000000 0.000000 0.000000 0.000000 0.000000 0.000000 10.000000 
R_forearm 0.000000 0.000000 0.000000 0.000000 0.000000 0.000000 10.000000 
R_front_hand 0.000000 0.000000 0.000000 0.000000 0.000000 0.000000 10.000000 
R_weapon_bone 0.000000 0.000000 0.000000 0.000000 0.000000 0.000000 10.000000 
R_front_hand01_01 0.000000 0.000000 0.000000 0.000000 0.000000 0.000000 10.000000 
R_front_hand02_01 0.000000 0.000000 0.000000 0.000000 0.000000 0.000000 10.000000 
R_front_hand03_01 0.000000 0.000000 0.000000 0.000000 0.000000 0.000000 10.000000 
R_front_hand01_02 0.000000 0.000000 0.000000 0.000000 0.000000 0.000000 10.000000 
R_front_hand02_02 0.000000 0.000000 0.000000 0.000000 0.000000 0.000000 10.000000 
R_front_hand03_02 0.000000 0.000000 0.000000 0.000000 0.000000 0.000000 10.000000 
null_rope01_connect 0.000000 0.000000 0.000000 0.000000 0.000000 0.000000 10.000000 
Rope1_Seg01 0.000000 0.000000 0.000000 0.000000 0.000000 0.000000 10.000000 
Rope1_Seg02 0.000000 0.000000 0.000000 0.000000 0.000000 0.000000 10.000000 
Rope1_Seg03 0.000000 0.000000 0.000000 0.000000 0.000000 0.000000 10.000000 
Rope1_Seg04 0.000000 0.000000 0.000000 0.000000 0.000000 0.000000 10.000000 
Rope1_Seg05 0.000000 0.000000 0.000000 0.000000 0.000000 0.000000 10.000000 
Rope1_Seg06 0.000000 0.000000 0.000000 0.000000 0.000000 0.000000 10.000000 
Rope1_Seg07 0.000000 0.000000 0.000000 0.000000 0.000000 0.000000 10.000000 
Rope1_Seg09 0.000000 0.000000 0.000000 0.000000 0.000000 0.000000 10.000000 
L_mid_hand01 0.000000 0.000000 0.000000 0.000000 0.000000 0.000000 10.000000 
L_mid_hand02 0.000000 0.000000 0.000000 0.000000 0.000000 0.000000 10.000000 
L_mid_hand03 0.000000 0.000000 0.000000 0.000000 0.000000 0.000000 10.000000 
null_rope02_connect 0.000000 0.000000 0.000000 0.000000 0.000000 0.000000 10.000000 
Rope2_Seg01 0.000000 0.000000 0.000000 0.000000 0.000000 0.000000 10.000000 
Rope2_Seg02 0.000000 0.000000 0.000000 0.000000 0.000000 0.000000 10.000000 
Rope2_Seg03 0.000000 0.000000 0.000000 0.000000 0.000000 0.000000 10.000000 
Rope2_Seg04 0.000000 0.000000 0.000000 0.000000 0.000000 0.000000 10.000000 
Rope2_Seg05 0.000000 0.000000 0.000000 0.000000 0.000000 0.000000 10.000000 
Rope2_Seg06 0.000000 0.000000 0.000000 0.000000 0.000000 0.000000 10.000000 
Rope2_Seg07 0.000000 0.000000 0.000000 0.000000 0.000000 0.000000 10.000000 
Rope2_Seg09 0.000000 0.000000 0.000000 0.000000 0.000000 0.000000 10.000000 
R_mid_hand01 0.000000 0.000000 0.000000 0.000000 0.000000 0.000000 10.000000 
R_mid_hand02 0.000000 0.000000 0.000000 0.000000 0.000000 0.000000 10.000000 
R_mid_hand03 0.000000 0.000000 0.000000 0.000000 0.000000 0.000000 10.000000 
spine02 0.000000 0.000000 0.000000 0.000000 0.000000 0.000000 10.000000 
spine03 0.000000 0.000000 0.000000 0.000000 0.000000 0.000000 10.000000 
pelvis 0.000000 0.000000 0.000000 0.000000 0.000000 0.000000 10.000000 
null_rope03_connect 0.000000 0.000000 0.000000 0.000000 0.000000 0.000000 10.000000 
null_rope04_connect 0.000000 0.000000 0.000000 0.000000 0.000000 0.000000 10.000000 
Rope3_Seg01 0.000000 0.000000 0.000000 0.000000 0.000000 0.000000 10.000000 
Rope3_Seg02 0.000000 0.000000 0.000000 0.000000 0.000000 0.000000 10.000000 
Rope3_Seg03 0.000000 0.000000 0.000000 0.000000 0.000000 0.000000 10.000000 
Rope3_Seg04 0.000000 0.000000 0.000000 0.000000 0.000000 0.000000 10.000000 
Rope3_Seg05 0.000000 0.000000 0.000000 0.000000 0.000000 0.000000 10.000000 
Rope3_Seg06 0.000000 0.000000 0.000000 0.000000 0.000000 0.000000 10.000000 
Rope3_Seg07 0.000000 0.000000 0.000000 0.000000 0.000000 0.000000 10.000000 
Rope3_Seg08 0.000000 0.000000 0.000000 0.000000 0.000000 0.000000 10.000000 
Rope3_Seg09 0.000000 0.000000 0.000000 0.000000 0.000000 0.000000 10.000000 
R_rear_hand01 0.000000 0.000000 0.000000 0.000000 0.000000 0.000000 10.000000 
R_rear_hand02 0.000000 0.000000 0.000000 0.000000 0.000000 0.000000 10.000000 
R_rear_hand03 0.000000 0.000000 0.000000 0.000000 0.000000 0.000000 10.000000 
Rope4_Seg01 0.000000 0.000000 0.000000 0.000000 0.000000 0.000000 10.000000 
Rope4_Seg02 0.000000 0.000000 0.000000 0.000000 0.000000 0.000000 10.000000 
Rope4_Seg03 0.000000 0.000000 0.000000 0.000000 0.000000 0.000000 10.000000 
Rope4_Seg04 0.000000 0.000000 0.000000 0.000000 0.000000 0.000000 10.000000 
Rope4_Seg05 0.000000 0.000000 0.000000 0.000000 0.000000 0.000000 10.000000 
Rope4_Seg06 0.000000 0.000000 0.000000 0.000000 0.000000 0.000000 10.000000 
Rope4_Seg07 0.000000 0.000000 0.000000 0.000000 0.000000 0.000000 10.000000 
Rope4_Seg08 0.000000 0.000000 0.000000 0.000000 0.000000 0.000000 10.000000 
Rope4_Seg09 0.000000 0.000000 0.000000 0.000000 0.000000 0.000000 10.000000 
L_rear_hand01 0.000000 0.000000 0.000000 0.000000 0.000000 0.000000 10.000000 
L_rear_hand02 0.000000 0.000000 0.000000 0.000000 0.000000 0.000000 10.000000 
L_rear_hand03 0.000000 0.000000 0.000000 0.000000 0.000000 0.000000 10.000000 
#Beginning of Data. Separated by tabs
#Fr	Tx	Ty	Tz	Rx	Ry	Rz	SF
[MASTER]
27 0.000000 0.000000 0.000000 0.001660 0.001660 0.001660 0.000000
28 0.000000 0.000000 0.000000 0.001660 0.001660 0.001660 0.000000
[root]
27 26.464067 333.356964 1547.553223 -68.157646 -12.499372 -136.667694 1583.271240
28 24.678070 313.478821 1532.186890 -69.324615 -12.330066 -132.372391 1564.120972
[chest]
27 -84.512650 -34.090519 0.000000 -2.879045 -4.907339 176.486511 91.129311
28 -84.512650 -34.090519 0.000000 -2.867577 -3.927005 176.457703 91.129311
[L_mid_tent01]
27 27.299509 22.178215 -249.918747 106.090034 17.423504 143.686768 252.381699
28 27.299467 22.178310 -249.918747 101.747215 23.215115 137.900848 252.381699
[R_mid_tent01]
27 23.228794 24.509907 226.238495 -123.023590 -20.694662 30.950186 228.744751
28 23.228794 24.509907 226.238495 -126.720245 -16.261515 30.322943 228.744751
[spine01]
27 -0.361383 -0.195265 0.000000 0.001935 0.001328 21.066763 0.410763
28 -0.361383 -0.195265 0.000000 0.001936 0.001328 21.108683 0.410763
[Bip01_Neck]
27 165.484543 71.581718 0.000119 175.896118 1.177290 24.871183 180.302734
28 165.484543 71.581718 0.000119 175.896118 1.177290 24.871183 180.302734
[L_humerus]
27 -13.983130 -135.272980 -120.471481 -72.324142 27.220577 11.517812 181.680161
28 -13.983130 -135.272980 -120.471481 -75.877739 32.790836 12.444600 181.680161
[R_humerus]
27 -13.983309 -135.273102 125.287651 138.924850 -35.940849 -17.879894 184.909012
28 -13.983309 -135.273102 125.287651 138.754959 -37.108006 -19.187561 184.909012
[weapon_bone]
27 235.964890 -300.705902 0.000000 0.000000 -89.951546 -128.212341 382.234833
28 235.964890 -300.705902 0.000000 0.000000 -89.951546 -128.212341 382.234833
[Bip01_Head]
27 257.954193 82.854454 1.119385 37.490776 12.964037 -69.833359 270.936310
28 255.194016 88.498840 1.776123 34.479847 12.180913 -69.693153 270.109558
[eye_left_bone]
27 32.292267 157.843216 -75.390854 -112.972351 -86.156006 13.563450 177.879318
28 31.834230 157.677780 -75.332520 -111.571709 -86.059212 12.148721 177.625137
[eye_right_bone]
27 39.222565 159.203415 53.451328 67.088242 -86.158752 13.505726 172.456314
28 39.026493 158.992508 53.498756 68.488167 -86.061790 12.091577 172.231827
[L_forearm]
27 322.776093 0.000000 -0.000119 0.001303 0.001952 -22.542459 322.776093
28 322.776093 0.000000 -0.000119 0.001060 0.002094 -36.316002 322.776093
[L_front_hand]
27 241.149185 -0.042021 -3.300071 39.578903 3.347551 -5.332741 241.171753
28 241.149185 -0.042021 -3.300071 39.578915 3.347552 -5.332743 241.171753
[L_weapon_bone]
27 156.183838 0.000000 0.000000 0.000781 0.002214 -51.135494 156.183838
28 156.183838 0.000000 0.000000 0.000900 0.002168 -44.903061 156.183838
[L_front_hand01_01]
27 86.095154 20.947098 -0.655860 -0.288967 -0.524182 66.581490 88.609184
28 86.095154 20.947098 -0.655860 -0.288967 -0.524182 66.581490 88.609184
[L_front_hand02_01]
27 86.935165 -11.437475 24.513514 142.546371 -55.255390 -47.355206 91.046425
28 86.935165 -11.437475 24.513514 142.546371 -55.255390 -47.355206 91.046425
[L_front_hand03_01]
27 86.637497 -14.123976 -20.424902 -142.852753 53.473366 -49.356205 90.126129
28 86.637497 -14.123976 -20.424902 -142.852737 53.473358 -49.356190 90.126129
[L_front_hand01_02]
27 71.020905 -0.000179 0.000030 0.001382 0.001897 -17.860199 71.020905
28 71.020905 -0.000179 0.000030 0.001534 0.001777 -8.378850 71.020905
[L_front_hand02_02]
27 71.020927 -0.000119 0.000060 0.001382 0.001897 -17.860199 71.020927
28 71.020927 -0.000119 0.000060 0.001534 0.001777 -8.378850 71.020927
[L_front_hand03_02]
27 71.020905 -0.000060 0.000060 0.001382 0.001897 -17.860199 71.020905
28 71.020905 -0.000060 0.000060 0.001534 0.001777 -8.378850 71.020905
[R_forearm]
27 322.776428 -0.000060 0.000030 0.118804 -0.173363 -35.095203 322.776428
28 322.776428 -0.000060 0.000030 0.120676 -0.172065 -36.337063 322.776428
[R_front_hand]
27 238.847015 -0.006795 2.210259 -2.635298 -10.645461 -26.312506 238.857239
28 238.847015 -0.006795 2.210259 -2.635298 -10.645461 -26.312506 238.857239
[R_weapon_bone]
27 155.664093 0.002503 -0.000030 0.003487 0.001180 -90.988930 155.664078
28 155.664093 0.002503 -0.000030 0.003487 0.001180 -90.988930 155.664078
[R_front_hand01_01]
27 87.624611 14.231146 22.918642 -154.633484 -59.950619 61.746037 91.683487
28 87.624611 14.231146 22.918642 -154.633514 -59.950634 61.746063 91.683487
[R_front_hand02_01]
27 89.356956 14.367283 -19.491137 154.602661 58.302849 63.744389 92.579636
28 89.356956 14.367283 -19.491137 154.602661 58.302849 63.744389 92.579636
[R_front_hand03_01]
27 87.286232 -22.307278 -0.143439 0.162155 -0.423168 -75.767921 90.091743
28 87.286232 -22.307278 -0.143439 0.162155 -0.423168 -75.767921 90.091743
[R_front_hand01_02]
27 71.020905 0.000060 0.000119 0.002323 -0.000334 106.381714 71.020905
28 71.020905 0.000060 0.000119 0.002323 -0.000334 106.381714 71.020905
[R_front_hand02_02]
27 71.020844 -0.000030 -0.000119 0.002323 -0.000334 106.381714 71.020836
28 71.020844 -0.000030 -0.000119 0.002323 -0.000334 106.381714 71.020836
[R_front_hand03_02]
27 71.020905 0.000000 0.000030 0.002323 -0.000334 106.381714 71.020905
28 71.020905 0.000000 0.000030 0.002323 -0.000334 106.381714 71.020905
[null_rope01_connect]
27 328.732483 0.000000 -0.000238 -137.791702 33.800781 61.276478 328.732483
28 328.732483 0.000000 -0.000238 -128.219498 31.684729 74.019791 328.732483
[Rope1_Seg01]
27 -0.000038 -0.000114 0.000109 64.947990 49.083393 77.691040 0.000162
28 -0.000038 -0.000114 0.000109 70.989571 47.761185 84.192543 0.000163
[Rope1_Seg02]
27 139.999863 -0.000179 0.000000 -4.197781 -15.686264 6.052521 139.999863
28 139.999863 -0.000179 0.000000 -3.906226 -15.522204 8.531564 139.999863
[Rope1_Seg03]
27 139.999924 0.000060 -0.000060 -8.475032 -16.982014 5.466755 139.999924
28 139.999924 0.000060 -0.000060 -8.405155 -17.410107 9.037218 139.999924
[Rope1_Seg04]
27 139.999924 -0.000060 -0.000119 -18.602064 -19.330545 3.557918 139.999924
28 139.999924 -0.000060 -0.000119 -18.301331 -17.869341 7.415939 139.999924
[Rope1_Seg05]
27 139.999832 0.000119 -0.000060 -3.249226 -2.223849 -0.484553 139.999832
28 139.999832 0.000119 -0.000060 -2.499272 -0.139258 -1.697089 139.999832
[Rope1_Seg06]
27 139.999954 0.000119 -0.000060 12.028012 10.212286 1.694476 139.999954
28 139.999954 0.000119 -0.000060 8.629386 11.538399 -3.442737 139.999954
[Rope1_Seg07]
27 139.999985 0.000060 0.000000 6.642425 8.522845 -0.382120 139.999985
28 139.999985 0.000060 0.000000 2.461432 5.996128 -3.173910 139.999985
[Rope1_Seg09]
27 121.602913 0.000119 -0.000089 -55.233154 -1.358266 0.846446 121.602913
28 121.602913 0.000119 -0.000089 -21.088951 -1.359713 0.848459 121.602913
[L_mid_hand01]
27 103.859421 1.038730 8.195221 130.544373 -67.584534 -38.866943 104.187431
28 103.859421 1.038730 8.195221 128.484756 -66.520050 -36.629124 104.187431
[L_mid_hand02]
27 105.572853 -4.139662 -10.864139 -168.923172 43.409309 -73.498886 106.211075
28 105.572853 -4.139662 -10.864139 -167.652328 43.129803 -71.648842 106.211075
[L_mid_hand03]
27 104.641464 17.579376 -3.913581 -6.012627 17.808174 74.893669 106.179977
28 104.641464 17.579376 -3.913581 -6.454768 17.660183 73.454323 106.179977
[null_rope02_connect]
27 328.732849 0.000179 -0.000119 170.763077 4.380685 -105.793617 328.732849
28 328.732849 0.000179 -0.000119 167.227753 9.008320 -106.268456 328.732849
[Rope2_Seg01]
27 0.000058 0.000109 0.000000 100.489906 13.066936 -85.848251 0.000124
28 0.000063 0.000110 0.000000 101.459740 14.751834 -69.609161 0.000127
[Rope2_Seg02]
27 139.999741 -0.000060 -0.000119 -29.299873 21.009161 14.679127 139.999756
28 139.999741 -0.000060 -0.000119 -52.704147 20.334522 12.749522 139.999756
[Rope2_Seg03]
27 140.000107 0.000030 0.000000 -38.675594 15.696967 49.652203 140.000107
28 140.000107 0.000030 0.000000 -40.000721 -0.623938 42.468624 140.000107
[Rope2_Seg04]
27 139.999802 0.000000 -0.000060 -7.324873 -9.160321 22.067936 139.999802
28 139.999802 0.000000 -0.000060 -6.113081 -14.735413 17.168440 139.999802
[Rope2_Seg05]
27 139.999985 -0.000060 0.000119 -2.106914 -2.814908 27.805239 139.999985
28 139.999985 -0.000060 0.000119 -3.390543 -6.393110 24.917498 139.999985
[Rope2_Seg06]
27 139.999893 -0.000030 -0.000119 4.726818 -2.665331 30.557976 139.999893
28 139.999893 -0.000030 -0.000119 5.288095 -6.944427 37.090599 139.999893
[Rope2_Seg07]
27 139.999893 0.000060 -0.000060 4.009931 -0.669864 12.030964 139.999893
28 139.999893 0.000060 -0.000060 6.083241 -2.055220 14.305358 139.999893
[Rope2_Seg09]
27 121.338966 0.000089 -0.000060 33.793236 -1.359788 -0.847141 121.338966
28 121.338966 0.000089 -0.000060 33.793236 -1.359788 -0.847141 121.338966
[R_mid_hand01]
27 104.680779 11.144459 -10.335981 -44.145947 19.560667 21.759449 105.778534
28 104.680779 11.144459 -10.335981 -44.145947 19.560663 21.759447 105.778534
[R_mid_hand02]
27 104.070427 2.443552 8.231699 74.186180 -24.483591 7.232481 104.424065
28 104.070427 2.443552 8.231699 74.186180 -24.483591 7.232481 104.424065
[R_mid_hand03]
27 106.028137 -11.221827 -5.996406 -166.520828 8.347036 -28.494411 106.788818
28 106.028137 -11.221827 -5.996406 -166.520828 8.347037 -28.494413 106.788818
[spine02]
27 129.756927 0.001550 0.000119 0.316767 -4.049010 -12.316083 129.756927
28 129.756927 0.001550 0.000119 0.310781 -4.049545 -12.216323 129.756927
[spine03]
27 78.614365 0.080938 -4.899026 2.128250 3.708200 20.007166 78.766907
28 78.614334 0.080987 -4.899024 2.111425 3.716611 19.775614 78.766876
[pelvis]
27 169.435242 0.051022 0.000000 -0.061184 -0.179983 14.545446 169.435257
28 169.435242 0.051022 0.000000 -0.061087 -0.180016 14.483399 169.435257
[null_rope03_connect]
27 -1.257226 -2.466202 137.391083 -58.175571 -43.754539 126.967415 137.418976
28 -1.257226 -2.466202 137.391083 -57.500427 -47.542961 124.907799 137.418976
[null_rope04_connect]
27 -1.259640 -2.480268 -137.844437 -58.175571 -43.754539 126.967415 137.872513
28 -1.259640 -2.480268 -137.844437 -57.500427 -47.542961 124.907799 137.872513
[Rope3_Seg01]
27 0.000000 0.000000 0.000000 -95.263268 -25.200121 -137.645660 0.000000
28 0.000000 0.000000 0.000000 -97.990105 -25.418661 -134.739151 0.000000
[Rope3_Seg02]
27 139.999924 -0.000119 0.000060 8.372080 11.592886 4.088270 139.999924
28 139.999924 -0.000119 0.000060 6.103307 10.255268 5.693202 139.999924
[Rope3_Seg03]
27 139.999924 -0.000119 0.000119 18.587219 16.004650 3.259734 139.999924
28 139.999924 -0.000119 0.000119 15.483258 14.857011 6.512795 139.999924
[Rope3_Seg04]
27 139.999924 0.000119 0.000000 23.486513 13.890879 -1.702167 139.999924
28 139.999924 0.000119 0.000000 27.073441 14.755787 2.414167 139.999924
[Rope3_Seg05]
27 139.999924 -0.000238 0.000060 27.950438 14.357109 -8.722768 139.999924
28 139.999924 -0.000238 0.000060 39.561840 16.128757 -5.533000 139.999924
[Rope3_Seg06]
27 139.999893 -0.000119 -0.000060 20.642550 10.700464 -18.917898 139.999893
28 139.999893 -0.000119 -0.000060 26.295790 10.764060 -18.894175 139.999893
[Rope3_Seg07]
27 139.999771 0.000060 -0.000119 7.599960 1.972030 -14.541389 139.999771
28 139.999771 0.000060 -0.000119 8.473671 0.581938 -15.105343 139.999771
[Rope3_Seg08]
27 139.999985 -0.000060 0.000000 2.707078 -0.001612 -6.774855 139.999985
28 139.999985 -0.000060 0.000000 2.794571 -0.724876 -6.777894 139.999985
[Rope3_Seg09]
27 90.185997 -0.000179 -0.000060 33.781197 -1.359481 -0.845279 90.185997
28 90.185997 -0.000179 -0.000060 31.282007 -1.360003 -0.845300 90.185997
[R_rear_hand01]
27 103.366196 -6.073594 -10.757982 -160.019470 14.769054 -24.439312 104.101845
28 103.366196 -6.073594 -10.757982 -160.019470 14.769053 -24.439312 104.101845
[R_rear_hand02]
27 100.509819 12.039542 -7.992327 -35.779438 15.980555 23.927942 101.543350
28 100.509819 12.039542 -7.992327 -35.779446 15.980558 23.927948 101.543350
[R_rear_hand03]
27 101.539970 5.215704 5.435467 83.711815 -25.208061 6.550417 101.819031
28 101.539970 5.215704 5.435467 83.711807 -25.208057 6.550418 101.819031
[Rope4_Seg01]
27 0.000000 0.000000 0.000000 -90.113754 42.099033 100.229546 0.000000
28 0.000000 0.000000 0.000000 -77.398621 51.884216 115.345490 0.000000
[Rope4_Seg02]
27 139.999985 0.000060 0.000119 -0.036143 -1.106860 -1.719234 139.999985
28 139.999985 0.000060 0.000119 -0.480869 -2.391326 -5.109949 139.999985
[Rope4_Seg03]
27 139.999924 0.000000 -0.000238 0.021596 -1.674847 -1.363840 139.999924
28 139.999924 0.000000 -0.000238 0.502202 -6.334301 -1.972865 139.999924
[Rope4_Seg04]
27 139.999985 0.000000 0.000119 1.302238 -9.332611 2.490952 139.999985
28 139.999985 0.000000 0.000119 1.736836 -8.497970 -0.057947 139.999985
[Rope4_Seg05]
27 139.999802 -0.000060 -0.000119 -2.359186 6.928411 -5.882374 139.999802
28 139.999802 -0.000060 -0.000119 -10.176558 17.770744 -14.788176 139.999802
[Rope4_Seg06]
27 139.999924 0.000000 0.000060 -3.588526 18.845299 -10.920320 139.999924
28 139.999924 0.000000 0.000060 -4.391768 19.646002 -10.242992 139.999924
[Rope4_Seg07]
27 139.999802 0.000000 0.000000 0.236685 9.004965 -4.768461 139.999802
28 139.999802 0.000000 0.000000 -0.022469 6.386744 -3.185021 139.999802
[Rope4_Seg08]
27 139.999924 0.000000 0.000119 -1.046095 3.836106 -2.171321 139.999924
28 139.999924 0.000000 0.000119 -1.321376 3.223052 -1.648608 139.999924
[Rope4_Seg09]
27 90.185791 0.000060 0.000060 173.803680 2.228887 0.851975 90.185791
28 90.185791 0.000060 0.000060 171.999588 2.229630 0.852356 90.185791
[L_rear_hand01]
27 101.696655 -8.392275 -7.654577 -34.621262 -18.604889 152.181091 102.329041
28 101.696655 -8.392275 -7.654577 -35.296379 -17.139994 154.380905 102.329041
[L_rear_hand02]
27 102.726799 -1.568258 5.773216 83.447205 29.730923 172.873245 102.900848
28 102.726799 -1.568258 5.773216 83.602142 27.193542 173.204086 102.900848
[L_rear_hand03]
27 104.552910 9.721220 -10.420293 -161.213150 -16.280884 -151.108414 105.519653
28 104.552910 9.721220 -10.420293 -160.526413 -15.440565 -153.616974 105.519653
